<?xml version="1.0" encoding="UTF-8" standalone="no"?>
<svg
   width="213.75743"
   height="211.04219"
   viewBox="0 0 213.75743 211.04219"
   version="1.1"
   id="svg223"
   sodipodi:docname="logo_cropped (1).svg"
   inkscape:version="1.2.1 (9c6d41e4, 2022-07-14)"
   xmlns:inkscape="http://www.inkscape.org/namespaces/inkscape"
   xmlns:sodipodi="http://sodipodi.sourceforge.net/DTD/sodipodi-0.dtd"
   xmlns="http://www.w3.org/2000/svg"
   xmlns:svg="http://www.w3.org/2000/svg"
   xmlns:rdf="http://www.w3.org/1999/02/22-rdf-syntax-ns#"
   xmlns:cc="http://creativecommons.org/ns#"
   xmlns:dc="http://purl.org/dc/elements/1.1/">
  <defs
     id="defs227" />
  <sodipodi:namedview
     id="namedview225"
     pagecolor="#ffffff"
     bordercolor="#000000"
     borderopacity="0.25"
     inkscape:showpageshadow="2"
     inkscape:pageopacity="0"
     inkscape:pagecheckerboard="0"
     inkscape:deskcolor="#d1d1d1"
     showgrid="false"
     inkscape:zoom="3.0907699"
     inkscape:cx="165.33098"
     inkscape:cy="104.34293"
     inkscape:window-width="1920"
     inkscape:window-height="1027"
     inkscape:window-x="0"
     inkscape:window-y="25"
     inkscape:window-maximized="1"
     inkscape:current-layer="svg223" />
  <!-- Generator: Sketch 64 (93537) - https://sketch.com -->
  <title
     id="title182">logo</title>
  <desc
     id="desc184">Created with Sketch.</desc>
  <g
     id="g1264"
     transform="translate(268.09264,-67.169044)">
    <g
       id="g438"
       stroke="none"
       stroke-width="1"
       fill="none"
       fill-rule="evenodd"
       style="fill:#ffffff"
       transform="translate(-470.20395,44.630001)">
      <g
         id="g570"
         style="stroke:#ffffff;stroke-width:20;stroke-linejoin:miter;stroke-dasharray:none;stroke-opacity:1"
         transform="translate(211.92131,33.648574)">
        <g
           id="g436"
           transform="translate(0,-1)"
           style="fill:#ffffff;stroke:#ffffff;stroke-width:20;stroke-linejoin:miter;stroke-dasharray:none;stroke-opacity:1">
          <polygon
             id="polygon400"
             points="32.28,7.26 31.57,7.19 31.56,7.26 "
             style="fill:#ffffff;stroke:#ffffff;stroke-width:20;stroke-linejoin:miter;stroke-dasharray:none;stroke-opacity:1" />
          <polygon
             id="polygon402"
             fill="#E54545"
             fill-rule="nonzero"
             points="25.52,9.83 25.79,7.26 0.19,7.26 0.19,169.92 32.13,169.92 32.23,168.94 41.28,169.92 162.85,169.92 162.85,21.33 162.51,21.29 56.13,9.83 32.28,7.26 31.56,7.26 31.28,9.83 16.78,144.41 11.15,143.81 25.45,10.46 "
             style="fill:#ffffff;stroke:#ffffff;stroke-width:20;stroke-linejoin:miter;stroke-dasharray:none;stroke-opacity:1" />
          <polygon
             id="polygon404"
             fill="#E54545"
             fill-rule="nonzero"
             points="162.85,15.61 162.85,7.26 85.04,7.26 109,9.83 162.51,15.57 "
             style="fill:#ffffff;stroke:#ffffff;stroke-width:20;stroke-linejoin:miter;stroke-dasharray:none;stroke-opacity:1" />
          <polygon
             id="polygon406"
             fill="#1D1721"
             fill-rule="nonzero"
             points="25.45,10.46 11.15,143.81 16.78,144.41 31.28,9.83 31.56,7.26 25.79,7.26 25.52,9.83 "
             style="fill:#ffffff;stroke:#ffffff;stroke-width:20;stroke-linejoin:miter;stroke-dasharray:none;stroke-opacity:1" />
          <polygon
             id="polygon408"
             fill="#1D1721"
             fill-rule="nonzero"
             points="162.85,21.33 162.85,15.61 162.51,15.57 109,9.83 85.04,7.26 32.28,7.26 56.13,9.83 162.51,21.29 "
             style="fill:#ffffff;stroke:#ffffff;stroke-width:20;stroke-linejoin:miter;stroke-dasharray:none;stroke-opacity:1" />
          <polygon
             id="polygon410"
             fill="#1D1721"
             fill-rule="nonzero"
             points="41.28,169.92 32.23,168.94 32.13,169.92 "
             style="fill:#ffffff;stroke:#ffffff;stroke-width:20;stroke-linejoin:miter;stroke-dasharray:none;stroke-opacity:1" />
          <polygon
             id="polygon412"
             fill="#0058B7"
             fill-rule="nonzero"
             points="164.97,188.9 174.45,189.92 175.4,181.07 175.46,180.44 189.76,47.09 184.13,46.49 169.34,183.71 41.28,169.92 32.13,169.92 31.62,174.6 38.41,175.33 91.92,181.07 "
             style="fill:#ffffff;stroke:#ffffff;stroke-width:20;stroke-linejoin:miter;stroke-dasharray:none;stroke-opacity:1" />
          <polygon
             id="polygon414"
             fill="#0058B7"
             fill-rule="nonzero"
             points="31.57,7.19 32.28,7.26 85.04,7.26 35.94,2 26.47,0.98 25.79,7.26 31.56,7.26 "
             style="fill:#ffffff;stroke:#ffffff;stroke-width:20;stroke-linejoin:miter;stroke-dasharray:none;stroke-opacity:1" />
          <polygon
             id="polygon416"
             fill="#0058B7"
             fill-rule="nonzero"
             points="169.29,16.3 162.85,15.61 162.85,21.33 168.68,21.96 "
             style="fill:#ffffff;stroke:#ffffff;stroke-width:20;stroke-linejoin:miter;stroke-dasharray:none;stroke-opacity:1" />
          <polygon
             id="polygon418"
             fill="#FFFFFF"
             fill-rule="nonzero"
             points="93,153.28 93,120.12 98.66,120.12 98.66,153.28 "
             style="fill:#ffffff;stroke:#ffffff;stroke-width:20;stroke-linejoin:miter;stroke-dasharray:none;stroke-opacity:1" />
          <path
             d="m 47.36,153.57 c -1.815719,-0.0141 -3.617856,-0.31445 -5.34,-0.89 -1.771663,-0.57329 -3.454583,-1.39119 -5,-2.43 l 1.16,-4.43 c 1.454743,1.06925 3.062961,1.91213 4.77,2.5 1.57149,0.55291 3.224108,0.84018 4.89,0.85 1.286866,0.14 2.568695,-0.30444 3.492692,-1.21101 0.923997,-0.90656 1.392773,-2.17969 1.277308,-3.46899 0.06459,-1.18564 -0.436169,-2.33182 -1.35,-3.09 -1.51714,-1.03676 -3.178154,-1.84537 -4.93,-2.4 -2.562915,-0.77854 -4.943332,-2.06397 -7,-3.78 -1.556466,-1.53217 -2.379606,-3.65922 -2.26,-5.84 -0.118221,-2.57865 0.863073,-5.0864 2.7,-6.9 2.003547,-1.80733 4.645889,-2.73971 7.34,-2.59 1.778203,-0.005 3.544033,0.29572 5.22,0.89 1.561426,0.52432 3.019808,1.3161 4.31,2.34 l -0.91,4.27 c -1.318694,-0.96088 -2.761913,-1.738 -4.29,-2.31 -1.345541,-0.51156 -2.770604,-0.78235 -4.21,-0.8 -1.215735,-0.0686 -2.411378,0.33236 -3.34,1.12 -0.846307,0.81373 -1.292387,1.95818 -1.22,3.13 -0.05689,1.14565 0.41935,2.25319 1.29,3 1.607065,1.08541 3.37083,1.9184 5.23,2.47 2.558428,0.74144 4.921421,2.03904 6.92,3.8 1.46683,1.57154 2.228902,3.67356 2.11,5.82 0.110294,2.69004 -0.921193,5.30144 -2.84,7.19 -1.893333,1.84 -4.566667,2.76 -8.02,2.76 z"
             id="path420"
             fill="#FFFFFF"
             fill-rule="nonzero"
             style="fill:#ffffff;stroke:#ffffff;stroke-width:20;stroke-linejoin:miter;stroke-dasharray:none;stroke-opacity:1" />
          <polygon
             id="polygon422"
             fill="#FFFFFF"
             fill-rule="nonzero"
             points="85.45,153.28 79.82,153.28 79.82,137.28 69.91,137.28 69.91,153.28 64.27,153.28 64.27,120.12 69.91,120.12 69.91,132.92 79.82,132.92 79.82,120.12 85.45,120.12 "
             style="fill:#ffffff;stroke:#ffffff;stroke-width:20;stroke-linejoin:miter;stroke-dasharray:none;stroke-opacity:1" />
          <polygon
             id="polygon424"
             fill="#FFFFFF"
             fill-rule="nonzero"
             points="122.75,140.51 111.89,140.51 111.89,153.28 106.25,153.28 106.25,120.12 125,120.12 125,124.51 111.89,124.51 111.89,136.12 122.75,136.12 "
             style="fill:#ffffff;stroke:#ffffff;stroke-width:20;stroke-linejoin:miter;stroke-dasharray:none;stroke-opacity:1" />
          <polygon
             id="polygon426"
             fill="#FFFFFF"
             fill-rule="nonzero"
             points="143.25,153.28 137.59,153.28 137.59,124.51 129.83,124.51 129.83,120.12 151,120.12 151,124.51 143.25,124.51 "
             style="fill:#ffffff;stroke:#ffffff;stroke-width:20;stroke-linejoin:miter;stroke-dasharray:none;stroke-opacity:1" />
          <polygon
             id="polygon428"
             fill="#FFFFFF"
             fill-rule="nonzero"
             points="77.64,110.65 72,110.65 72,81.88 64.25,81.88 64.25,77.48 85.39,77.48 85.39,81.88 77.64,81.88 "
             style="fill:#ffffff;stroke:#ffffff;stroke-width:20;stroke-linejoin:miter;stroke-dasharray:none;stroke-opacity:1" />
          <polygon
             id="polygon430"
             fill="#FFFFFF"
             fill-rule="nonzero"
             points="93.04,110.65 95.46,110.65 98.69,110.65 98.69,80.79 98.69,77.48 93.04,77.48 "
             style="fill:#ffffff;stroke:#ffffff;stroke-width:20;stroke-linejoin:miter;stroke-dasharray:none;stroke-opacity:1" />
          <polygon
             id="polygon432"
             fill="#FFFFFF"
             fill-rule="nonzero"
             points="143.25,110.65 137.58,110.65 137.58,81.88 129.83,81.88 129.83,77.48 151,77.48 151,81.88 143.25,81.88 "
             style="fill:#ffffff;stroke:#ffffff;stroke-width:20;stroke-linejoin:miter;stroke-dasharray:none;stroke-opacity:1" />
          <polygon
             id="polygon434"
             fill="#FFFFFF"
             fill-rule="nonzero"
             points="106.25,77.48 111.89,77.48 111.89,106.25 125,106.25 125,110.65 106.25,110.65 "
             style="fill:#ffffff;stroke:#ffffff;stroke-width:20;stroke-linejoin:miter;stroke-dasharray:none;stroke-opacity:1" />
        </g>
        <path
           style="fill:#ffffff;stroke:#ffffff;stroke-width:20;stroke-linejoin:miter;stroke-dasharray:none;stroke-opacity:1"
           d="M 26.55833,-0.119171 192.93601,17.219798 174.54155,188.91746 31.80935,173.64177 9.9459617,171.59439 Z"
           id="path548"
           sodipodi:nodetypes="cccccc" />
      </g>
    </g>
    <g
       id="Page-1"
       stroke="none"
       stroke-width="1"
       fill="none"
       fill-rule="evenodd"
       transform="translate(-256.18892,78.240136)">
      <g
         id="logo"
         transform="translate(0,-1)">
        <polygon
           id="Path"
           points="31.56,7.26 32.28,7.26 31.57,7.19 " />
        <polygon
           id="polygon187"
           fill="#e54545"
           fill-rule="nonzero"
           points="25.45,10.46 25.52,9.83 25.79,7.26 0.19,7.26 0.19,169.92 32.13,169.92 32.23,168.94 41.28,169.92 162.85,169.92 162.85,21.33 162.51,21.29 56.13,9.83 32.28,7.26 31.56,7.26 31.28,9.83 16.78,144.41 11.15,143.81 " />
        <polygon
           id="polygon189"
           fill="#e54545"
           fill-rule="nonzero"
           points="162.51,15.57 162.85,15.61 162.85,7.26 85.04,7.26 109,9.83 " />
        <polygon
           id="polygon191"
           fill="#1d1721"
           fill-rule="nonzero"
           points="25.52,9.83 25.45,10.46 11.15,143.81 16.78,144.41 31.28,9.83 31.56,7.26 25.79,7.26 " />
        <polygon
           id="polygon193"
           fill="#1d1721"
           fill-rule="nonzero"
           points="162.51,21.29 162.85,21.33 162.85,15.61 162.51,15.57 109,9.83 85.04,7.26 32.28,7.26 56.13,9.83 " />
        <polygon
           id="polygon195"
           fill="#1d1721"
           fill-rule="nonzero"
           points="32.13,169.92 41.28,169.92 32.23,168.94 " />
        <polygon
           id="polygon197"
           fill="#0058b7"
           fill-rule="nonzero"
           points="91.92,181.07 164.97,188.9 174.45,189.92 175.4,181.07 175.46,180.44 189.76,47.09 184.13,46.49 169.34,183.71 41.28,169.92 32.13,169.92 31.62,174.6 38.41,175.33 " />
        <polygon
           id="polygon199"
           fill="#0058b7"
           fill-rule="nonzero"
           points="31.56,7.26 31.57,7.19 32.28,7.26 85.04,7.26 35.94,2 26.47,0.98 25.79,7.26 " />
        <polygon
           id="polygon201"
           fill="#0058b7"
           fill-rule="nonzero"
           points="168.68,21.96 169.29,16.3 162.85,15.61 162.85,21.33 " />
        <polygon
           id="polygon203"
           fill="#ffffff"
           fill-rule="nonzero"
           points="98.66,153.28 93,153.28 93,120.12 98.66,120.12 " />
        <path
           d="m 47.36,153.57 c -1.815719,-0.0141 -3.617856,-0.31445 -5.34,-0.89 -1.771663,-0.57329 -3.454583,-1.39119 -5,-2.43 l 1.16,-4.43 c 1.454743,1.06925 3.062961,1.91213 4.77,2.5 1.57149,0.55291 3.224108,0.84018 4.89,0.85 1.286866,0.14 2.568695,-0.30444 3.492692,-1.21101 0.923997,-0.90656 1.392773,-2.17969 1.277308,-3.46899 0.06459,-1.18564 -0.436169,-2.33182 -1.35,-3.09 -1.51714,-1.03676 -3.178154,-1.84537 -4.93,-2.4 -2.562915,-0.77854 -4.943332,-2.06397 -7,-3.78 -1.556466,-1.53217 -2.379606,-3.65922 -2.26,-5.84 -0.118221,-2.57865 0.863073,-5.0864 2.7,-6.9 2.003547,-1.80733 4.645889,-2.73971 7.34,-2.59 1.778203,-0.005 3.544033,0.29572 5.22,0.89 1.561426,0.52432 3.019808,1.3161 4.31,2.34 l -0.91,4.27 c -1.318694,-0.96088 -2.761913,-1.738 -4.29,-2.31 -1.345541,-0.51156 -2.770604,-0.78235 -4.21,-0.8 -1.215735,-0.0686 -2.411378,0.33236 -3.34,1.12 -0.846307,0.81373 -1.292387,1.95818 -1.22,3.13 -0.05689,1.14565 0.41935,2.25319 1.29,3 1.607065,1.08541 3.37083,1.9184 5.23,2.47 2.558428,0.74144 4.921421,2.03904 6.92,3.8 1.46683,1.57154 2.228902,3.67356 2.11,5.82 0.110294,2.69004 -0.921193,5.30144 -2.84,7.19 -1.893333,1.84 -4.566667,2.76 -8.02,2.76 z"
           id="path205"
           fill="#ffffff"
           fill-rule="nonzero" />
        <polygon
           id="polygon207"
           fill="#ffffff"
           fill-rule="nonzero"
           points="85.45,120.12 85.45,153.28 79.82,153.28 79.82,137.28 69.91,137.28 69.91,153.28 64.27,153.28 64.27,120.12 69.91,120.12 69.91,132.92 79.82,132.92 79.82,120.12 " />
        <polygon
           id="polygon209"
           fill="#ffffff"
           fill-rule="nonzero"
           points="122.75,136.12 122.75,140.51 111.89,140.51 111.89,153.28 106.25,153.28 106.25,120.12 125,120.12 125,124.51 111.89,124.51 111.89,136.12 " />
        <polygon
           id="polygon211"
           fill="#ffffff"
           fill-rule="nonzero"
           points="143.25,124.51 143.25,153.28 137.59,153.28 137.59,124.51 129.83,124.51 129.83,120.12 151,120.12 151,124.51 " />
        <polygon
           id="polygon213"
           fill="#ffffff"
           fill-rule="nonzero"
           points="77.64,81.88 77.64,110.65 72,110.65 72,81.88 64.25,81.88 64.25,77.48 85.39,77.48 85.39,81.88 " />
        <polygon
           id="polygon215"
           fill="#ffffff"
           fill-rule="nonzero"
           points="93.04,77.48 93.04,110.65 95.46,110.65 98.69,110.65 98.69,80.79 98.69,77.48 " />
        <polygon
           id="polygon217"
           fill="#ffffff"
           fill-rule="nonzero"
           points="143.25,81.88 143.25,110.65 137.58,110.65 137.58,81.88 129.83,81.88 129.83,77.48 151,77.48 151,81.88 " />
        <polygon
           id="polygon219"
           fill="#ffffff"
           fill-rule="nonzero"
           points="106.25,110.65 106.25,77.48 111.89,77.48 111.89,106.25 125,106.25 125,110.65 " />
      </g>
    </g>
  </g>
  <metadata
     id="metadata1266">
    <rdf:RDF>
      <cc:Work
         rdf:about="">
        <dc:title>logo</dc:title>
      </cc:Work>
    </rdf:RDF>
  </metadata>
</svg>
