<?xml version="1.0" encoding="UTF-8" standalone="no"?>
<!-- Created with Inkscape (http://www.inkscape.org/) -->

<svg
   width="112.56636mm"
   height="82.475311mm"
   viewBox="0 0 112.56636 82.475311"
   version="1.1"
   id="svg5"
   xml:space="preserve"
   sodipodi:docname="klik.svg"
   inkscape:version="1.2.1 (9c6d41e4, 2022-07-14)"
   xmlns:inkscape="http://www.inkscape.org/namespaces/inkscape"
   xmlns:sodipodi="http://sodipodi.sourceforge.net/DTD/sodipodi-0.dtd"
   xmlns="http://www.w3.org/2000/svg"
   xmlns:svg="http://www.w3.org/2000/svg"><sodipodi:namedview
     id="namedview7"
     pagecolor="#ffffff"
     bordercolor="#000000"
     borderopacity="0.25"
     inkscape:showpageshadow="2"
     inkscape:pageopacity="0.0"
     inkscape:pagecheckerboard="0"
     inkscape:deskcolor="#d1d1d1"
     inkscape:document-units="mm"
     showgrid="false"
     inkscape:zoom="0.75709525"
     inkscape:cx="156.51927"
     inkscape:cy="214.63614"
     inkscape:window-width="1213"
     inkscape:window-height="915"
     inkscape:window-x="0"
     inkscape:window-y="25"
     inkscape:window-maximized="0"
     inkscape:current-layer="layer1" /><defs
     id="defs2" /><g
     inkscape:label="Layer 1"
     inkscape:groupmode="layer"
     id="layer1"
     transform="translate(-31.937363,-104.45236)"><path
       style="fill:#000000;stroke-width:0.163839"
       d="m 144.39895,177.80269 c -0.60271,1.45567 -4.3154,0.84751 -4.74702,-0.77759 -0.0516,-0.1944 -0.17545,-0.6257 -0.27511,-0.95846 -0.22311,-0.74479 0.14484,-1.67574 0.7236,-1.83083 2.06093,-0.55224 4.99575,1.88303 4.29853,3.56688 z m -4.25946,-5.70122 c -1.20495,0.78952 -2.51788,-0.20069 -3.26125,-2.45965 -0.64748,-1.96753 -0.68943,-2.1455 -0.98829,-4.19318 -0.30364,-2.08063 -0.43504,-2.85426 -0.83482,-4.9152 -0.14859,-0.76595 -0.32976,-1.72441 -0.40264,-2.12992 -0.0729,-0.4055 -0.3603,-1.16869 -0.63876,-1.69599 -1.57555,-2.9835 0.72535,-4.45166 3.50779,-2.23826 0.75807,0.60305 0.93115,1.12111 1.72484,5.16306 0.67529,3.43903 0.80753,4.39868 0.81274,5.89822 0.002,0.7209 0.11456,2.19265 0.24901,3.27057 0.34025,2.72805 0.32764,2.9752 -0.16862,3.30035 z m -12.11699,0.82881 c -0.509,0.72669 -2.90735,1.67238 -5.54703,2.18725 -1.14254,0.22285 -3.82864,-0.31756 -5.33222,-1.07277 -1.0067,-0.50563 -1.0386,-0.49058 -1.08026,0.5095 -0.0493,1.18362 -1.19488,2.16078 -2.01373,1.71769 -0.15647,-0.0847 -0.49905,-0.19963 -0.76129,-0.25547 -0.63723,-0.13568 -2.71808,-2.27022 -2.71808,-2.7882 0,-0.20774 -0.14006,-0.77133 -0.31124,-1.25244 -0.54963,-1.54468 -1.45011,-4.61323 -1.65101,-5.62609 -0.10725,-0.54067 -0.30462,-1.36479 -0.43861,-1.83136 -0.68414,-2.38224 -0.71067,-5.45445 -0.0517,-5.98804 1.0979,-0.88902 3.59945,0.83308 3.59945,2.47791 0,0.32697 0.21468,1.58883 0.47707,2.80414 0.74041,3.42941 0.86019,3.59546 1.80066,2.49639 0.77304,-0.9034 1.98209,-2.52061 1.98209,-2.65121 0,-0.0623 0.12969,-0.25616 0.2882,-0.43085 0.1585,-0.17469 0.54367,-0.64939 0.85592,-1.05489 0.31226,-0.4055 0.60841,-0.77415 0.65812,-0.8192 0.0497,-0.0451 0.3406,-0.41369 0.6464,-0.8192 0.80117,-1.06235 2.45969,-2.61362 3.08706,-2.88741 1.93692,-0.84528 4.16511,2.42224 2.46183,3.61018 -0.20844,0.14538 -0.5633,0.51619 -0.78858,0.82403 -0.96149,1.31386 -2.46706,3.32321 -2.83077,3.77799 -1.02624,1.2832 -1.77186,3.44258 -1.52639,4.42058 0.21797,0.86848 1.95887,1.13449 4.22357,0.64534 0.65921,-0.14238 1.56719,-0.32253 2.01775,-0.40034 0.45056,-0.0778 1.02298,-0.19129 1.27207,-0.25219 1.22147,-0.29862 2.42198,1.60039 1.68073,2.65866 z m -21.64222,5.69575 c -0.61557,0.61556 -2.47387,-0.14602 -3.36957,-1.38094 -0.47158,-0.65016 -0.68167,-1.00442 -1.41259,-2.38193 -0.26797,-0.50502 -1.02344,-2.43388 -1.02292,-2.6117 4.9e-4,-0.17162 -0.647042,-1.9854 -1.141849,-3.19835 -1.535168,-3.76321 -1.542809,-7.28633 -0.01647,-7.59159 0.781119,-0.15623 2.469499,0.7296 2.469499,1.29565 0,0.12862 0.0574,0.23387 0.12753,0.23387 0.1724,0 0.69104,1.78086 0.69423,2.38378 0.003,0.63123 0.34204,1.94905 0.94535,3.67829 0.26724,0.76595 0.79862,2.38796 1.18085,3.60447 0.38223,1.21651 0.82077,2.43362 0.97452,2.7047 0.75809,1.33654 1.01742,2.81774 0.57141,3.26375 z m -1.77324,-29.51885 c -0.88795,2.42534 -4.686727,0.72277 -4.686727,-2.10053 0,-1.8927 4.257447,-1.70163 4.639937,0.20823 0.0503,0.25143 0.13222,0.64147 0.18192,0.86674 0.0497,0.22529 -0.0111,0.68678 -0.13513,1.02556 z m -9.343269,29.05283 c -0.128077,0.18285 -0.295289,0.57334 -0.371579,0.86775 -0.0875,0.33766 -0.319099,0.63669 -0.627287,0.80992 -0.268724,0.15103 -0.513217,0.33007 -0.543324,0.39787 -0.0488,0.10983 -0.723188,0.5681 -2.239012,1.52143 -0.827999,0.52074 -1.597277,0.90093 -2.539517,1.25508 -0.495612,0.18628 -0.988363,0.40755 -1.094996,0.49173 -0.106639,0.0842 -0.452458,0.18512 -0.768497,0.22432 -0.316034,0.0392 -0.748509,0.13738 -0.961056,0.2182 -3.527741,1.34124 -7.422634,-0.89568 -9.143171,-5.25112 -0.76394,-1.93388 -1.102798,-12.31854 -0.441441,-13.52842 1.196464,-2.18879 4.87938,-0.0476 4.243077,2.46682 -0.944107,3.73079 0.21433,12.65077 1.655783,12.74956 1.111555,0.0762 2.430708,-0.10083 3.233511,-0.4339 0.495613,-0.20562 1.527806,-0.57952 2.293752,-0.83089 0.765952,-0.25136 1.739272,-0.66922 2.162935,-0.92855 3.518187,-2.15362 6.641077,-2.17172 5.140822,-0.0298 z m -0.20332,-20.78048 c -0.352427,0.8734 -3.431643,-0.63818 -6.309257,-3.09721 -0.511031,-0.43669 -0.984357,-0.79399 -1.051841,-0.79399 -0.06749,0 -0.622079,-0.46079 -1.232436,-1.02399 -0.610357,-0.5632 -1.611582,-1.48075 -2.224955,-2.039 -0.613372,-0.55825 -2.03213,-1.88534 -3.1528,-2.94911 -2.880224,-2.73397 -2.858569,-2.71597 -4.761762,-3.95882 -2.408502,-1.57284 -3.568487,-1.95119 -7.121126,-2.32269 -1.165881,-0.12191 -1.985406,-0.11871 -2.867194,0.0112 -2.972515,0.438 -4.251945,0.67327 -5.248774,0.96516 -1.118964,0.32766 -2.262185,0.60371 -3.358713,0.81103 -0.360448,0.0681 -0.816401,0.21122 -1.013228,0.31794 -2.023875,1.09734 -5.930255,-1.43105 -5.944846,-3.84776 -0.0055,-0.91776 0.387029,-2.67353 0.744766,-3.331 0.333135,-0.61224 0.708272,-1.57707 1.146637,-2.9491 0.36939,-1.15615 0.564626,-1.65774 0.907874,-2.3325 0.0796,-0.15647 0.144724,-0.4195 0.144724,-0.58452 0,-0.16501 0.150295,-0.84799 0.333987,-1.51773 1.440431,-5.25181 1.681314,-10.19815 0.576596,-11.83996 -1.72321,-2.56101 -9.62385,0.95992 -11.887024,5.29745 -0.259194,0.49677 -0.470965,0.64984 -0.901937,0.65194 -0.583979,0.003 -1.551362,-0.33266 -1.844263,-0.63961 -0.157109,-0.16465 -0.433109,-0.3466 -0.613332,-0.40435 -0.303898,-0.0974 -0.778824,-0.74097 -2.249634,-3.04862 -0.315886,-0.49561 -0.630601,-1.08543 -0.699366,-1.31072 -0.06876,-0.22527 -0.262807,-0.60529 -0.43121,-0.84449 -0.168401,-0.23918 -0.306183,-0.4796 -0.306183,-0.53426 0,-0.0547 -0.140837,-0.41191 -0.312972,-0.7939 -0.172134,-0.38199 -0.47674,-1.21063 -0.676902,-1.84142 -0.200164,-0.63078 -0.463356,-1.33119 -0.58487,-1.55647 -0.395449,-0.73314 -1.046692,-2.32879 -1.046692,-2.56458 0,-0.12652 -0.21524,-0.65643 -0.478309,-1.17757 -0.860071,-1.70378 -0.878985,-3.16098 -0.04536,-3.49451 1.05926,-0.42379 3.224,-0.0844 4.455819,0.69864 3.01291,1.91518 10.349909,2.30267 12.92774,0.68275 1.072324,-0.67385 4.111589,0.97584 4.111589,2.23175 0,0.81341 -0.517996,1.29043 -1.797746,1.65552 -1.797791,0.51288 -2.926975,1.13431 -4.079971,2.2453 -0.304109,0.29304 -0.69118,0.57667 -0.860158,0.63031 -0.168978,0.0536 -0.307233,0.16627 -0.307233,0.2503 0,0.66096 -1.050946,0.0108 -2.227256,-1.37796 -0.670779,-0.79191 -0.670779,-0.79191 -2.949114,-1.18553 -3.308939,-0.57168 -3.473697,-0.49119 -2.786452,1.3613 0.126039,0.33975 0.396548,1.17068 0.601132,1.84652 1.302212,4.30185 1.526606,4.4806 3.378561,2.69135 0.599425,-0.57913 1.162498,-1.05296 1.251273,-1.05296 0.08878,0 0.389554,-0.17191 0.668395,-0.38201 0.899739,-0.67795 2.648551,-1.39641 4.052783,-1.66498 0.753165,-0.14405 1.497792,-0.28831 1.654723,-0.32056 1.107005,-0.22751 3.75432,0.4222 4.567059,1.12088 0.325906,0.28017 0.898919,0.76079 1.273362,1.06805 1.994362,1.63652 2.937733,7.03176 1.921988,10.99204 -0.127116,0.49562 -0.281388,1.23289 -0.342826,1.6384 -0.160207,1.05742 -1.026087,4.30801 -1.505682,5.65247 -2.29076,6.42173 -2.215245,6.66465 1.746994,5.61978 10.681356,-2.81674 16.516981,-1.39637 24.084437,5.86208 0.856063,0.8211 1.998846,1.89533 2.539514,2.38716 0.540674,0.49183 1.351676,1.23054 1.802238,1.64157 0.450557,0.41103 1.335291,1.18772 1.966077,1.72598 0.630779,0.53825 1.499912,1.32232 1.931402,1.74237 0.43149,0.42006 0.838991,0.76374 0.905565,0.76374 0.121792,0 0.455598,0.27833 2.217462,1.84895 1.221419,1.08884 1.570545,1.72106 1.308726,2.36992 z m -20.576252,25.21423 c -1.254351,0.88092 -3.479052,1.28751 -6.370782,1.1643 -2.104867,-0.0897 -2.576059,-0.21757 -4.768091,-1.29421 -0.786726,-0.3864 -1.612986,0.61702 -1.854748,2.25244 -0.536848,3.63156 -4.817672,2.49818 -4.827473,-1.27811 -0.004,-1.52812 -0.365955,-5.80146 -0.649516,-7.66764 -0.452163,-2.9758 -0.804294,-4.77408 -0.978511,-4.99711 -0.07039,-0.0901 -0.218102,-0.44358 -0.328256,-0.78546 -0.110153,-0.34189 -0.460073,-0.96197 -0.777602,-1.37795 -1.200114,-1.57224 -0.683265,-3.15122 0.935178,-2.85697 2.454032,0.44615 4.088483,3.35597 4.66054,8.29717 0.248461,2.14612 0.590227,2.8498 1.164649,2.39796 0.387756,-0.30501 1.44734,-1.61979 1.565159,-1.94213 0.0354,-0.0968 0.506725,-0.65756 1.047396,-1.24604 0.540671,-0.58849 1.351678,-1.48995 1.802237,-2.00325 0.450559,-0.5133 1.315837,-1.45872 1.92284,-2.10094 0.607005,-0.64222 1.344284,-1.51047 1.638398,-1.92944 1.254676,-1.78731 2.733072,-1.89048 3.939267,-0.27491 0.306992,0.41118 0.306782,0.42747 -0.01375,1.05484 -0.337051,0.65964 -1.458156,2.37727 -1.64571,2.52135 -0.05865,0.0451 -0.380158,0.48853 -0.714465,0.98549 -0.334307,0.49697 -0.868834,1.15655 -1.187838,1.46574 -0.318997,0.30919 -0.580001,0.64254 -0.580001,0.74077 0,0.0982 -0.294365,0.5077 -0.654146,0.90993 -0.35978,0.40224 -0.878118,1.09998 -1.151864,1.55054 -0.273744,0.45056 -0.679793,1.06972 -0.90233,1.37591 -0.67102,0.92326 -0.458274,1.7816 0.571833,2.30712 0.726385,0.37058 0.944795,0.37104 5.537172,0.0118 3.040142,-0.23782 3.309671,-0.12419 3.314253,1.39741 0.0025,0.7944 -0.02929,0.8547 -0.693811,1.32141 z"
       id="path302"
       inkscape:export-filename="klik.svg"
       inkscape:export-xdpi="96"
       inkscape:export-ydpi="96" /></g></svg>
